<?xml version="1.0" encoding="UTF-8"?>
<svg id="Layer_1" data-name="Layer 1" xmlns="http://www.w3.org/2000/svg" xmlns:xlink="http://www.w3.org/1999/xlink" viewBox="0 0 128 128">
  <defs>
    <style>
      .cls-1 {
        fill: #8b98a0;
      }

      .cls-2 {
        fill: #bf2262;
      }

      .cls-3 {
        fill: #267cb5;
      }

      .cls-4, .cls-5 {
        opacity: .8;
      }

      .cls-6 {
        fill: url(#Dégradé_sans_nom);
      }

      .cls-7 {
        fill: url(#Dégradé_sans_nom_3);
      }

      .cls-8 {
        fill: url(#Dégradé_sans_nom_2);
      }

      .cls-9 {
        fill: url(#Dégradé_sans_nom_4);
      }

      .cls-5 {
        fill: url(#Dégradé_sans_nom_5);
        isolation: isolate;
      }
    </style>
    <radialGradient id="Dégradé_sans_nom" data-name="Dégradé sans nom" cx="102.16" cy="90" fx="102.16" fy="90" r="21.53" gradientTransform="translate(0 130) scale(1 -1)" gradientUnits="userSpaceOnUse">
      <stop offset="0" stop-color="#e7ecef"/>
      <stop offset="1" stop-color="#bfc8cd"/>
    </radialGradient>
    <linearGradient id="Dégradé_sans_nom_2" data-name="Dégradé sans nom 2" x1="101.61" y1="112.41" x2="112.59" y2="70.31" gradientTransform="translate(0 130) scale(1 -1)" gradientUnits="userSpaceOnUse">
      <stop offset="0" stop-color="#fff"/>
      <stop offset="1" stop-color="#b7c6ce"/>
    </linearGradient>
    <linearGradient id="Dégradé_sans_nom_3" data-name="Dégradé sans nom 3" x1="96.57" y1="125.35" x2="104.15" y2="97.78" gradientTransform="translate(0 130) scale(1 -1)" gradientUnits="userSpaceOnUse">
      <stop offset="0" stop-color="#fffbd4"/>
      <stop offset="1" stop-color="#000"/>
    </linearGradient>
    <linearGradient id="Dégradé_sans_nom_4" data-name="Dégradé sans nom 4" x1="93.01" y1="129.04" x2="107.11" y2="88.13" gradientTransform="translate(0 130) scale(1 -1)" gradientUnits="userSpaceOnUse">
      <stop offset="0" stop-color="#fff"/>
      <stop offset="1" stop-color="#000"/>
    </linearGradient>
    <linearGradient id="Dégradé_sans_nom_5" data-name="Dégradé sans nom 5" x1="92.26" y1="105" x2="113.46" y2="105" gradientTransform="translate(0 130) scale(1 -1)" gradientUnits="userSpaceOnUse">
      <stop offset="0" stop-color="#fff"/>
      <stop offset="1" stop-color="#b7c6ce"/>
    </linearGradient>
  </defs>
  <path class="cls-3" d="M64,0C28.7,0,0,28.7,0,64s28.7,64,64,64,64-28.7,64-64S99.3,0,64,0ZM28,39H100c.8,0,1.6,.3,2.2,.7l-38.2,32.7L25.8,39.7c.6-.4,1.4-.7,2.2-.7Zm76,46c0,2.2-1.8,4-4,4H28c-2.2,0-4-1.8-4-4V43.5l37.4,31.9c1.5,1.3,3.7,1.3,5.2,0l37.4-32v41.6Z"/>
  <g id="Plus_-_Gris" data-name="Plus - Gris">
    <g>
      <g>
        <circle class="cls-6" cx="102.2" cy="25" r="20.9"/>
        <path class="cls-1" d="M102.2,4.5c11.3,0,20.5,9.2,20.5,20.5s-9.2,20.5-20.5,20.5-20.5-9.1-20.5-20.5,9.2-20.5,20.5-20.5m0-.7c-11.7,0-21.2,9.5-21.2,21.2s9.5,21.2,21.2,21.2,21.2-9.5,21.2-21.2c0-11.7-9.5-21.2-21.2-21.2h0Z"/>
      </g>
      <g class="cls-4">
        <path class="cls-8" d="M116.4,10.2c3.5,3.7,5.7,8.7,5.7,14.2,0,11.3-9.2,20.5-20.5,20.5-5.5,0-10.5-2.2-14.2-5.7,3.7,3.9,9,6.4,14.8,6.4,11.3,0,20.5-9.2,20.5-20.5,0-5.9-2.4-11.2-6.3-14.9Z"/>
      </g>
      <path class="cls-7" d="M97.1,28.8c7.2-6.2,16.5-12,24.6-7.6-1.8-9.1-9.9-16-19.5-16-11,0-19.9,8.9-19.9,19.9,0,2.7,.5,5.2,1.5,7.5,3.1,.7,8.1,.8,13.3-3.8Z"/>
      <path class="cls-9" d="M83.6,26.4c0-11,8.9-19.9,19.9-19.9,5.1,0,9.8,2,13.4,5.2-3.6-4-8.9-6.5-14.7-6.5-11,0-19.9,8.9-19.9,19.9,0,5.8,2.5,11.1,6.5,14.7-3.2-3.6-5.2-8.3-5.2-13.4Z"/>
    </g>
    <polygon class="cls-5" points="113.5 22.4 105.5 22.4 105.5 14.4 100.2 14.4 100.2 22.4 92.3 22.4 92.3 27.7 100.2 27.7 100.2 35.6 105.5 35.6 105.5 27.7 113.5 27.7 113.5 22.4"/>
    <polygon class="cls-2" points="112.8 21.7 104.9 21.7 104.9 13.8 99.5 13.8 99.5 21.7 91.6 21.7 91.6 27 99.5 27 99.5 35 104.9 35 104.9 27 112.8 27 112.8 21.7"/>
  </g>
</svg>