<?xml version="1.0" standalone="no"?>
<!DOCTYPE svg PUBLIC "-//W3C//DTD SVG 20010904//EN"
 "http://www.w3.org/TR/2001/REC-SVG-20010904/DTD/svg10.dtd">
<svg version="1.0" xmlns="http://www.w3.org/2000/svg"
 width="700.000000pt" height="700.000000pt" viewBox="0 0 700.000000 700.000000"
 preserveAspectRatio="xMidYMid meet">
<metadata>
Created by potrace 1.14, written by Peter Selinger 2001-2017
</metadata>
<g transform="translate(0.000000,700.000000) scale(0.100000,-0.100000)"
fill="#000000" stroke="none">
<path d="M3278 6995 c-1 -1 -42 -5 -89 -9 -47 -4 -95 -8 -105 -10 -10 -2 -41
-7 -69 -10 -48 -6 -132 -21 -185 -31 -14 -3 -38 -8 -55 -10 -125 -22 -500
-139 -599 -186 -22 -11 -44 -19 -48 -19 -16 0 -321 -155 -403 -205 -550 -332
-978 -770 -1279 -1309 -199 -356 -346 -775 -400 -1141 -2 -16 -8 -50 -12 -75
-36 -226 -40 -683 -9 -907 10 -67 14 -99 20 -148 4 -27 10 -66 15 -85 5 -19
12 -48 14 -65 28 -156 114 -435 189 -615 207 -497 527 -944 932 -1301 28 -24
52 -47 55 -50 32 -36 370 -275 470 -332 248 -141 409 -215 648 -298 103 -35
330 -99 409 -114 79 -15 253 -44 293 -49 253 -32 705 -27 930 10 165 27 224
38 275 51 33 8 68 16 77 18 85 17 345 103 485 161 724 300 1334 843 1717 1528
189 339 321 707 390 1086 14 81 17 101 32 215 3 27 8 61 10 75 9 49 11 526 4
605 -16 169 -22 220 -25 225 -2 3 -6 30 -10 60 -7 55 -58 298 -75 355 -68 230
-136 413 -219 587 -41 87 -48 112 -32 122 4 3 22 43 40 89 93 247 102 525 26
767 -104 326 -366 610 -670 725 -38 15 -79 31 -90 36 -98 43 -395 61 -550 33
-88 -16 -233 -63 -309 -101 l-48 -24 -54 25 c-30 14 -82 37 -117 51 -34 14
-71 30 -82 34 -63 26 -88 36 -170 62 -166 54 -428 119 -545 134 -19 3 -46 7
-60 10 -13 2 -52 7 -86 11 -33 3 -74 8 -90 10 -32 5 -540 14 -546 9z m1517
-2203 c115 -108 299 -223 400 -248 14 -3 27 -10 30 -14 3 -4 -23 -32 -57 -62
-35 -29 -76 -65 -93 -79 -16 -15 -210 -181 -430 -369 -432 -369 -438 -374
-625 -535 -69 -59 -136 -117 -150 -128 -14 -12 -103 -88 -197 -169 l-172 -148
-188 161 c-103 89 -210 180 -237 202 -27 23 -54 47 -60 52 -31 28 -98 85 -146
125 -30 25 -61 52 -70 60 -8 8 -40 35 -70 60 -30 25 -65 55 -79 68 -13 12 -38
33 -54 45 -16 12 -41 34 -55 48 -15 14 -54 48 -87 75 -32 27 -66 56 -75 64 -9
8 -38 33 -64 55 -27 22 -54 45 -60 50 -6 6 -74 64 -151 130 -77 65 -142 122
-145 125 -3 3 -32 28 -65 55 -33 28 -62 52 -65 55 -3 3 -34 30 -70 60 -36 30
-67 57 -70 60 -8 9 -212 183 -247 212 -23 18 -30 29 -22 34 51 31 92 32 1694
32 l1600 0 80 -76z m-3390 -249 c11 -10 63 -54 115 -98 52 -44 97 -82 100 -86
4 -4 130 -112 275 -234 28 -24 136 -116 240 -205 105 -89 201 -172 215 -184
46 -38 154 -131 180 -152 14 -12 59 -51 100 -86 41 -36 188 -161 325 -278 138
-117 264 -224 280 -239 159 -137 188 -154 265 -154 71 0 110 21 230 124 52 44
118 101 145 124 88 76 220 189 276 236 91 78 500 428 559 479 30 26 109 94
175 150 66 57 134 114 150 129 17 14 59 51 95 81 36 30 67 57 70 60 3 3 48 41
100 85 52 44 101 85 108 92 7 7 33 29 58 50 46 37 48 37 135 38 l88 0 -1
-1080 c0 -1054 0 -1081 -20 -1126 -24 -57 -69 -100 -125 -121 -38 -14 -246
-16 -2050 -16 l-2008 0 -47 24 c-53 27 -95 74 -113 127 -9 28 -12 297 -12
1186 l-1 1151 37 -29 c20 -16 45 -38 56 -48z"/>
</g>
</svg>
